%TF.GenerationSoftware,KiCad,Pcbnew,(5.99.0-10632-g8f3343b9e3)*%
%TF.CreationDate,2021-06-08T13:19:10-04:00*%
%TF.ProjectId,rpi-cm4-LiM-board,7270692d-636d-4342-9d4c-694d2d626f61,v01*%
%TF.SameCoordinates,Original*%
%TF.FileFunction,Copper,L2,Bot*%
%TF.FilePolarity,Positive*%
%FSLAX46Y46*%
G04 Gerber Fmt 4.6, Leading zero omitted, Abs format (unit mm)*
G04 Created by KiCad (PCBNEW (5.99.0-10632-g8f3343b9e3)) date 2021-06-08 13:19:10*
%MOMM*%
%LPD*%
G01*
G04 APERTURE LIST*
G04 Aperture macros list*
%AMFreePoly0*
4,1,22,0.500000,-0.750000,0.000000,-0.750000,0.000000,-0.745033,-0.079941,-0.743568,-0.215256,-0.701293,-0.333266,-0.622738,-0.424486,-0.514219,-0.481581,-0.384460,-0.499164,-0.250000,-0.500000,-0.250000,-0.500000,0.250000,-0.499164,0.250000,-0.499963,0.256109,-0.478152,0.396186,-0.417904,0.524511,-0.324060,0.630769,-0.204165,0.706417,-0.067858,0.745374,0.000000,0.744959,0.000000,0.750000,
0.500000,0.750000,0.500000,-0.750000,0.500000,-0.750000,$1*%
%AMFreePoly1*
4,1,20,0.000000,0.744959,0.073905,0.744508,0.209726,0.703889,0.328688,0.626782,0.421226,0.519385,0.479903,0.390333,0.500000,0.250000,0.500000,-0.250000,0.499851,-0.262216,0.476331,-0.402017,0.414519,-0.529596,0.319384,-0.634700,0.198574,-0.708877,0.061801,-0.746166,0.000000,-0.745033,0.000000,-0.750000,-0.500000,-0.750000,-0.500000,0.750000,0.000000,0.750000,0.000000,0.744959,
0.000000,0.744959,$1*%
G04 Aperture macros list end*
%TA.AperFunction,ComponentPad*%
%ADD10O,2.000000X1.000000*%
%TD*%
%TA.AperFunction,ComponentPad*%
%ADD11O,2.100000X1.050000*%
%TD*%
%TA.AperFunction,SMDPad,CuDef*%
%ADD12FreePoly0,270.000000*%
%TD*%
%TA.AperFunction,SMDPad,CuDef*%
%ADD13FreePoly1,270.000000*%
%TD*%
%TA.AperFunction,ViaPad*%
%ADD14C,0.508000*%
%TD*%
%TA.AperFunction,Conductor*%
%ADD15C,0.200000*%
%TD*%
G04 APERTURE END LIST*
D10*
%TO.P,J2,G1,GND*%
%TO.N,GND*%
X173900000Y-129320000D03*
%TO.P,J2,G2,GND*%
X173900000Y-120680000D03*
D11*
%TO.P,J2,G3,GND*%
X169720000Y-129320000D03*
%TO.P,J2,G4,GND*%
X169720000Y-120680000D03*
%TD*%
D12*
%TO.P,JP1,1,A*%
%TO.N,/CM4 GPIO/EEPROM_nWP*%
X170000000Y-114350000D03*
D13*
%TO.P,JP1,2,B*%
%TO.N,GND*%
X170000000Y-115650000D03*
%TD*%
D14*
%TO.N,GND*%
X155000000Y-130000000D03*
X171000000Y-103500000D03*
X127000000Y-92000000D03*
X171000000Y-80500000D03*
X144000000Y-82000000D03*
X145500000Y-86000000D03*
X128778000Y-88138000D03*
X157000000Y-82000000D03*
X131064000Y-125730000D03*
X171000000Y-101500000D03*
X139000000Y-82175000D03*
X144000000Y-84000000D03*
X155500000Y-86000000D03*
X133500000Y-92500000D03*
X144000000Y-80000000D03*
X133500000Y-97500000D03*
X157000000Y-84000000D03*
X147000000Y-130000000D03*
X129000000Y-116000000D03*
X138000000Y-130000000D03*
X153500000Y-86000000D03*
X175500000Y-90000000D03*
X157000000Y-80000000D03*
X131238000Y-123730000D03*
X147500000Y-86000000D03*
X151500000Y-86000000D03*
X163000000Y-121000000D03*
X167000000Y-92000000D03*
X149500000Y-86000000D03*
X169000000Y-110000000D03*
X174023750Y-96476250D03*
X127000000Y-101092000D03*
X171000000Y-99000000D03*
%TO.N,/CM4 GPIO/EEPROM_nWP*%
X160700000Y-110000000D03*
%TO.N,/CM4 GPIO/nLED_Activity*%
X172310000Y-89240000D03*
X163500000Y-108760000D03*
%TD*%
D15*
%TO.N,GND*%
X169000000Y-110000000D02*
X171000000Y-108000000D01*
X171000000Y-108000000D02*
X171000000Y-103500000D01*
%TO.N,/CM4 GPIO/EEPROM_nWP*%
X160700000Y-110000000D02*
X165050000Y-114350000D01*
X165050000Y-114350000D02*
X170000000Y-114350000D01*
%TO.N,/CM4 GPIO/nLED_Activity*%
X168010000Y-93540000D02*
X164200000Y-93540000D01*
X163270000Y-96840000D02*
X163270000Y-108530000D01*
X163270000Y-108530000D02*
X163500000Y-108760000D01*
X163270000Y-94470000D02*
X163270000Y-96840000D01*
X172310000Y-89240000D02*
X168010000Y-93540000D01*
X164200000Y-93540000D02*
X163270000Y-94470000D01*
%TD*%
%TA.AperFunction,Conductor*%
%TO.N,GND*%
G36*
X144959191Y-78433907D02*
G01*
X144995155Y-78483407D01*
X145000000Y-78514000D01*
X145000000Y-85000000D01*
X156000000Y-85000000D01*
X156000000Y-82106635D01*
X159946361Y-82106635D01*
X159978062Y-82451632D01*
X159978635Y-82454388D01*
X159978636Y-82454393D01*
X159984113Y-82480725D01*
X160048614Y-82790822D01*
X160049493Y-82793488D01*
X160049495Y-82793495D01*
X160057973Y-82819204D01*
X160157109Y-83119844D01*
X160302154Y-83434470D01*
X160481882Y-83730654D01*
X160693985Y-84004588D01*
X160935734Y-84252751D01*
X161204022Y-84471951D01*
X161206373Y-84473463D01*
X161206381Y-84473469D01*
X161493047Y-84657859D01*
X161493053Y-84657863D01*
X161495400Y-84659372D01*
X161806121Y-84812603D01*
X162132191Y-84929674D01*
X162134910Y-84930314D01*
X162134916Y-84930316D01*
X162315781Y-84972903D01*
X162469418Y-85009080D01*
X162472196Y-85009409D01*
X162472197Y-85009409D01*
X162570383Y-85021030D01*
X162813466Y-85049801D01*
X162962939Y-85050453D01*
X163157098Y-85051301D01*
X163157103Y-85051301D01*
X163159913Y-85051313D01*
X163176723Y-85049472D01*
X163501513Y-85013902D01*
X163501521Y-85013901D01*
X163504303Y-85013596D01*
X163507040Y-85012977D01*
X163507044Y-85012976D01*
X163839471Y-84937755D01*
X163839475Y-84937754D01*
X163842210Y-84937135D01*
X164169289Y-84822914D01*
X164171807Y-84821700D01*
X164171813Y-84821697D01*
X164478805Y-84673622D01*
X164478808Y-84673620D01*
X164481336Y-84672401D01*
X164774338Y-84487530D01*
X164776524Y-84485776D01*
X164776529Y-84485772D01*
X165042334Y-84272441D01*
X165042337Y-84272438D01*
X165044529Y-84270679D01*
X165060534Y-84254534D01*
X165286451Y-84026637D01*
X165286456Y-84026631D01*
X165288434Y-84024636D01*
X165304239Y-84004588D01*
X165501170Y-83754782D01*
X165501173Y-83754778D01*
X165502919Y-83752563D01*
X165685226Y-83457959D01*
X165833010Y-83144610D01*
X165944373Y-82816547D01*
X166017882Y-82477986D01*
X166052592Y-82133279D01*
X166053113Y-82109431D01*
X166055457Y-82001949D01*
X166055500Y-82000000D01*
X166041887Y-81760268D01*
X166036018Y-81656903D01*
X166036017Y-81656898D01*
X166035859Y-81654108D01*
X165977188Y-81312662D01*
X165910515Y-81083916D01*
X165881025Y-80982742D01*
X165881024Y-80982738D01*
X165880241Y-80980053D01*
X165879158Y-80977470D01*
X165747355Y-80663156D01*
X165747354Y-80663154D01*
X165746265Y-80660557D01*
X165576983Y-80358281D01*
X165388063Y-80095856D01*
X165376204Y-80079383D01*
X165376203Y-80079382D01*
X165374569Y-80077112D01*
X165141628Y-79820663D01*
X165033481Y-79725820D01*
X164883267Y-79594086D01*
X164883266Y-79594086D01*
X164881154Y-79592233D01*
X164596494Y-79394758D01*
X164291310Y-79230777D01*
X164288704Y-79229737D01*
X164288699Y-79229735D01*
X163972128Y-79103436D01*
X163969524Y-79102397D01*
X163966821Y-79101660D01*
X163637975Y-79012006D01*
X163637969Y-79012005D01*
X163635274Y-79011270D01*
X163632513Y-79010845D01*
X163632508Y-79010844D01*
X163295627Y-78958993D01*
X163295621Y-78958992D01*
X163292857Y-78958567D01*
X163290058Y-78958457D01*
X162949477Y-78945075D01*
X162949475Y-78945075D01*
X162946674Y-78944965D01*
X162902576Y-78948242D01*
X162603969Y-78970432D01*
X162603960Y-78970433D01*
X162601177Y-78970640D01*
X162260808Y-79035261D01*
X161929941Y-79137998D01*
X161612832Y-79277530D01*
X161610410Y-79278942D01*
X161610407Y-79278944D01*
X161414102Y-79393426D01*
X161313557Y-79452062D01*
X161035962Y-79659351D01*
X160965304Y-79725820D01*
X160813736Y-79868402D01*
X160783619Y-79896733D01*
X160781804Y-79898877D01*
X160781803Y-79898878D01*
X160570956Y-80147940D01*
X160559769Y-80161154D01*
X160367292Y-80449217D01*
X160366011Y-80451704D01*
X160366007Y-80451711D01*
X160209948Y-80754718D01*
X160209944Y-80754726D01*
X160208662Y-80757216D01*
X160207667Y-80759842D01*
X160207664Y-80759849D01*
X160099041Y-81046555D01*
X160085918Y-81081193D01*
X160000638Y-81416983D01*
X159953919Y-81760268D01*
X159946361Y-82106635D01*
X156000000Y-82106635D01*
X156000000Y-78514000D01*
X156018907Y-78455809D01*
X156068407Y-78419845D01*
X156099000Y-78415000D01*
X173255827Y-78415000D01*
X173274746Y-78417134D01*
X173277949Y-78418304D01*
X173287429Y-78419245D01*
X173289553Y-78419272D01*
X173289559Y-78419272D01*
X173369423Y-78420274D01*
X173461128Y-78421425D01*
X173465033Y-78421551D01*
X173544053Y-78425693D01*
X173549205Y-78426097D01*
X173623510Y-78433907D01*
X173801304Y-78452594D01*
X173806442Y-78453271D01*
X173867897Y-78463004D01*
X173872989Y-78463947D01*
X174120919Y-78516646D01*
X174125913Y-78517845D01*
X174186093Y-78533970D01*
X174191032Y-78535433D01*
X174432096Y-78613759D01*
X174436963Y-78615482D01*
X174495138Y-78637814D01*
X174499879Y-78639778D01*
X174652657Y-78707800D01*
X174731383Y-78742851D01*
X174736060Y-78745082D01*
X174791570Y-78773365D01*
X174796121Y-78775836D01*
X174844061Y-78803514D01*
X175015598Y-78902552D01*
X175020006Y-78905252D01*
X175072226Y-78939165D01*
X175076477Y-78942086D01*
X175281527Y-79091063D01*
X175285639Y-79094219D01*
X175334037Y-79133411D01*
X175337978Y-79136777D01*
X175526285Y-79306330D01*
X175530045Y-79309897D01*
X175574105Y-79353957D01*
X175577672Y-79357717D01*
X175747223Y-79546022D01*
X175750589Y-79549963D01*
X175789781Y-79598361D01*
X175792937Y-79602473D01*
X175941914Y-79807523D01*
X175944835Y-79811774D01*
X175951960Y-79822744D01*
X175978741Y-79863983D01*
X175981448Y-79868402D01*
X176108160Y-80087873D01*
X176110634Y-80092429D01*
X176138910Y-80147925D01*
X176141141Y-80152602D01*
X176244219Y-80384118D01*
X176246203Y-80388907D01*
X176268514Y-80447030D01*
X176270244Y-80451915D01*
X176348568Y-80692973D01*
X176350039Y-80697942D01*
X176366143Y-80758041D01*
X176367352Y-80763073D01*
X176420058Y-81011032D01*
X176420996Y-81016100D01*
X176430730Y-81077561D01*
X176431407Y-81082699D01*
X176457901Y-81334781D01*
X176458307Y-81339947D01*
X176462448Y-81418948D01*
X176462575Y-81422867D01*
X176464407Y-81568879D01*
X176465129Y-81572902D01*
X176467445Y-81585816D01*
X176469000Y-81603295D01*
X176469000Y-130705827D01*
X176466866Y-130724746D01*
X176465696Y-130727949D01*
X176464755Y-130737429D01*
X176464728Y-130739553D01*
X176464728Y-130739559D01*
X176462576Y-130911110D01*
X176462449Y-130915035D01*
X176462179Y-130920179D01*
X176458307Y-130994050D01*
X176457901Y-130999216D01*
X176431409Y-131251286D01*
X176430732Y-131256425D01*
X176420994Y-131317907D01*
X176420050Y-131323004D01*
X176367350Y-131570934D01*
X176366147Y-131575946D01*
X176350033Y-131636084D01*
X176348572Y-131641016D01*
X176270243Y-131882089D01*
X176268512Y-131886976D01*
X176246202Y-131945094D01*
X176244219Y-131949882D01*
X176141143Y-132181397D01*
X176138925Y-132186048D01*
X176110635Y-132241571D01*
X176108172Y-132246107D01*
X176104630Y-132252243D01*
X175981446Y-132465603D01*
X175978737Y-132470023D01*
X175944843Y-132522214D01*
X175941908Y-132526485D01*
X175792937Y-132731527D01*
X175789781Y-132735639D01*
X175750588Y-132784038D01*
X175747222Y-132787979D01*
X175577679Y-132976276D01*
X175574112Y-132980036D01*
X175530046Y-133024102D01*
X175526287Y-133027669D01*
X175501694Y-133049813D01*
X175337957Y-133197241D01*
X175334016Y-133200606D01*
X175285644Y-133239777D01*
X175281535Y-133242931D01*
X175076473Y-133391917D01*
X175072233Y-133394831D01*
X175023599Y-133426415D01*
X175020004Y-133428749D01*
X175015611Y-133431441D01*
X174796107Y-133558172D01*
X174791571Y-133560634D01*
X174736075Y-133588910D01*
X174731398Y-133591141D01*
X174499864Y-133694227D01*
X174495086Y-133696206D01*
X174436976Y-133718512D01*
X174432113Y-133720235D01*
X174191022Y-133798570D01*
X174186064Y-133800038D01*
X174125950Y-133816145D01*
X174120912Y-133817355D01*
X174102480Y-133821273D01*
X173872987Y-133870054D01*
X173867916Y-133870993D01*
X173806440Y-133880730D01*
X173801301Y-133881407D01*
X173549218Y-133907901D01*
X173544053Y-133908307D01*
X173504494Y-133910381D01*
X173465030Y-133912449D01*
X173461141Y-133912575D01*
X173315121Y-133914407D01*
X173311097Y-133915129D01*
X173311094Y-133915129D01*
X173297997Y-133917478D01*
X173280567Y-133919033D01*
X162579198Y-133924126D01*
X129119047Y-133924126D01*
X129100128Y-133921992D01*
X129096925Y-133920822D01*
X129087445Y-133919881D01*
X129085321Y-133919854D01*
X129085315Y-133919854D01*
X129001888Y-133918807D01*
X128913749Y-133917702D01*
X128909839Y-133917575D01*
X128882972Y-133916166D01*
X128830824Y-133913433D01*
X128825658Y-133913027D01*
X128573588Y-133886535D01*
X128568449Y-133885858D01*
X128506967Y-133876120D01*
X128501870Y-133875176D01*
X128253940Y-133822476D01*
X128248928Y-133821273D01*
X128188790Y-133805159D01*
X128183853Y-133803696D01*
X128169961Y-133799182D01*
X127942784Y-133725369D01*
X127937898Y-133723638D01*
X127879780Y-133701328D01*
X127874992Y-133699345D01*
X127741718Y-133640008D01*
X127643467Y-133596264D01*
X127638826Y-133594051D01*
X127583303Y-133565761D01*
X127578765Y-133563297D01*
X127555661Y-133549958D01*
X127359263Y-133436567D01*
X127354851Y-133433863D01*
X127351147Y-133431457D01*
X127330865Y-133418286D01*
X127302660Y-133399969D01*
X127298389Y-133397034D01*
X127093347Y-133248063D01*
X127089235Y-133244907D01*
X127040836Y-133205714D01*
X127036895Y-133202348D01*
X126848598Y-133032805D01*
X126844838Y-133029238D01*
X126800772Y-132985172D01*
X126797204Y-132981412D01*
X126744828Y-132923242D01*
X126627631Y-132793080D01*
X126624268Y-132789142D01*
X126585097Y-132740770D01*
X126581941Y-132736658D01*
X126578213Y-132731527D01*
X126432957Y-132531599D01*
X126430043Y-132527359D01*
X126396125Y-132475130D01*
X126393433Y-132470737D01*
X126266702Y-132251233D01*
X126264240Y-132246697D01*
X126235964Y-132191201D01*
X126233733Y-132186524D01*
X126130647Y-131954990D01*
X126128664Y-131950202D01*
X126128541Y-131949882D01*
X126106362Y-131892102D01*
X126104637Y-131887234D01*
X126083207Y-131821278D01*
X126026304Y-131646148D01*
X126024836Y-131641190D01*
X126008729Y-131581076D01*
X126007519Y-131576038D01*
X125976884Y-131431915D01*
X125954820Y-131328113D01*
X125953878Y-131323026D01*
X125953068Y-131317907D01*
X125944144Y-131261564D01*
X125943467Y-131256427D01*
X125916973Y-131004345D01*
X125916567Y-130999179D01*
X125912426Y-130920179D01*
X125912298Y-130916239D01*
X125911048Y-130816547D01*
X125910467Y-130770247D01*
X125907429Y-130753310D01*
X125905874Y-130735831D01*
X125905874Y-130106635D01*
X126946361Y-130106635D01*
X126978062Y-130451632D01*
X126978635Y-130454388D01*
X126978636Y-130454393D01*
X126984113Y-130480725D01*
X127048614Y-130790822D01*
X127049493Y-130793488D01*
X127049495Y-130793495D01*
X127057973Y-130819204D01*
X127157109Y-131119844D01*
X127253127Y-131328123D01*
X127277858Y-131381767D01*
X127302154Y-131434470D01*
X127303614Y-131436876D01*
X127430611Y-131646161D01*
X127481882Y-131730654D01*
X127544618Y-131811678D01*
X127651875Y-131950202D01*
X127693985Y-132004588D01*
X127935734Y-132252751D01*
X128204022Y-132471951D01*
X128206373Y-132473463D01*
X128206381Y-132473469D01*
X128493047Y-132657859D01*
X128493053Y-132657863D01*
X128495400Y-132659372D01*
X128806121Y-132812603D01*
X129132191Y-132929674D01*
X129134910Y-132930314D01*
X129134916Y-132930316D01*
X129303272Y-132969958D01*
X129469418Y-133009080D01*
X129472196Y-133009409D01*
X129472197Y-133009409D01*
X129570383Y-133021030D01*
X129813466Y-133049801D01*
X129962939Y-133050453D01*
X130157098Y-133051301D01*
X130157103Y-133051301D01*
X130159913Y-133051313D01*
X130176723Y-133049472D01*
X130501513Y-133013902D01*
X130501521Y-133013901D01*
X130504303Y-133013596D01*
X130507040Y-133012977D01*
X130507044Y-133012976D01*
X130839471Y-132937755D01*
X130839475Y-132937754D01*
X130842210Y-132937135D01*
X131169289Y-132822914D01*
X131171807Y-132821700D01*
X131171813Y-132821697D01*
X131478805Y-132673622D01*
X131478808Y-132673620D01*
X131481336Y-132672401D01*
X131774338Y-132487530D01*
X131776524Y-132485776D01*
X131776529Y-132485772D01*
X132042334Y-132272441D01*
X132042337Y-132272438D01*
X132044529Y-132270679D01*
X132060534Y-132254534D01*
X132286451Y-132026637D01*
X132286456Y-132026631D01*
X132288434Y-132024636D01*
X132304239Y-132004588D01*
X132501170Y-131754782D01*
X132501173Y-131754778D01*
X132502919Y-131752563D01*
X132685226Y-131457959D01*
X132833010Y-131144610D01*
X132944373Y-130816547D01*
X133017882Y-130477986D01*
X133020818Y-130448830D01*
X133052397Y-130135219D01*
X133052398Y-130135210D01*
X133052592Y-130133279D01*
X133053113Y-130109431D01*
X133053174Y-130106635D01*
X159946361Y-130106635D01*
X159978062Y-130451632D01*
X159978635Y-130454388D01*
X159978636Y-130454393D01*
X159984113Y-130480725D01*
X160048614Y-130790822D01*
X160049493Y-130793488D01*
X160049495Y-130793495D01*
X160057973Y-130819204D01*
X160157109Y-131119844D01*
X160253127Y-131328123D01*
X160277858Y-131381767D01*
X160302154Y-131434470D01*
X160303614Y-131436876D01*
X160430611Y-131646161D01*
X160481882Y-131730654D01*
X160544618Y-131811678D01*
X160651875Y-131950202D01*
X160693985Y-132004588D01*
X160935734Y-132252751D01*
X161204022Y-132471951D01*
X161206373Y-132473463D01*
X161206381Y-132473469D01*
X161493047Y-132657859D01*
X161493053Y-132657863D01*
X161495400Y-132659372D01*
X161806121Y-132812603D01*
X162132191Y-132929674D01*
X162134910Y-132930314D01*
X162134916Y-132930316D01*
X162303272Y-132969958D01*
X162469418Y-133009080D01*
X162472196Y-133009409D01*
X162472197Y-133009409D01*
X162570383Y-133021030D01*
X162813466Y-133049801D01*
X162962939Y-133050453D01*
X163157098Y-133051301D01*
X163157103Y-133051301D01*
X163159913Y-133051313D01*
X163176723Y-133049472D01*
X163501513Y-133013902D01*
X163501521Y-133013901D01*
X163504303Y-133013596D01*
X163507040Y-133012977D01*
X163507044Y-133012976D01*
X163839471Y-132937755D01*
X163839475Y-132937754D01*
X163842210Y-132937135D01*
X164169289Y-132822914D01*
X164171807Y-132821700D01*
X164171813Y-132821697D01*
X164478805Y-132673622D01*
X164478808Y-132673620D01*
X164481336Y-132672401D01*
X164774338Y-132487530D01*
X164776524Y-132485776D01*
X164776529Y-132485772D01*
X165042334Y-132272441D01*
X165042337Y-132272438D01*
X165044529Y-132270679D01*
X165060534Y-132254534D01*
X165286451Y-132026637D01*
X165286456Y-132026631D01*
X165288434Y-132024636D01*
X165304239Y-132004588D01*
X165501170Y-131754782D01*
X165501173Y-131754778D01*
X165502919Y-131752563D01*
X165685226Y-131457959D01*
X165833010Y-131144610D01*
X165944373Y-130816547D01*
X166017882Y-130477986D01*
X166020818Y-130448830D01*
X166052397Y-130135219D01*
X166052398Y-130135210D01*
X166052592Y-130133279D01*
X166053113Y-130109431D01*
X166054735Y-130035066D01*
X166055500Y-130000000D01*
X166049605Y-129896186D01*
X166036018Y-129656903D01*
X166036017Y-129656898D01*
X166035859Y-129654108D01*
X166024562Y-129588362D01*
X168197124Y-129588362D01*
X168231218Y-129704203D01*
X168234823Y-129713127D01*
X168324197Y-129884082D01*
X168329471Y-129892142D01*
X168450343Y-130042478D01*
X168457089Y-130049366D01*
X168604854Y-130173355D01*
X168612809Y-130178802D01*
X168781840Y-130271727D01*
X168790705Y-130275526D01*
X168974571Y-130333852D01*
X168984002Y-130335857D01*
X169134078Y-130352691D01*
X169139603Y-130353000D01*
X169450320Y-130353000D01*
X169463005Y-130348878D01*
X169466000Y-130344757D01*
X169466000Y-129589680D01*
X169463583Y-129582243D01*
X169974000Y-129582243D01*
X169974000Y-130337320D01*
X169978122Y-130350005D01*
X169982243Y-130353000D01*
X170293562Y-130353000D01*
X170298417Y-130352762D01*
X170441797Y-130338703D01*
X170451245Y-130336833D01*
X170635919Y-130281077D01*
X170644823Y-130277408D01*
X170815147Y-130186844D01*
X170823173Y-130181511D01*
X170972658Y-130059594D01*
X170979495Y-130052805D01*
X171102458Y-129904169D01*
X171107842Y-129896186D01*
X171199594Y-129726495D01*
X171203323Y-129717624D01*
X171243146Y-129588977D01*
X171243137Y-129588362D01*
X172428060Y-129588362D01*
X172459395Y-129694829D01*
X172463008Y-129703770D01*
X172550112Y-129870385D01*
X172555396Y-129878461D01*
X172673206Y-130024987D01*
X172679947Y-130031871D01*
X172823979Y-130152727D01*
X172831933Y-130158174D01*
X172996689Y-130248749D01*
X173005554Y-130252549D01*
X173184770Y-130309400D01*
X173194198Y-130311404D01*
X173339405Y-130327691D01*
X173344934Y-130328000D01*
X173630320Y-130328000D01*
X173643005Y-130323878D01*
X173646000Y-130319757D01*
X173646000Y-129589680D01*
X173643583Y-129582243D01*
X174154000Y-129582243D01*
X174154000Y-130312320D01*
X174158122Y-130325005D01*
X174162243Y-130328000D01*
X174448579Y-130328000D01*
X174453394Y-130327765D01*
X174591949Y-130314180D01*
X174601386Y-130312311D01*
X174781392Y-130257964D01*
X174790296Y-130254293D01*
X174956313Y-130166021D01*
X174964339Y-130160688D01*
X175110042Y-130041855D01*
X175116879Y-130035066D01*
X175236732Y-129890189D01*
X175242116Y-129882206D01*
X175331541Y-129716818D01*
X175335281Y-129707921D01*
X175372100Y-129588979D01*
X175371938Y-129577340D01*
X175361410Y-129574000D01*
X174169680Y-129574000D01*
X174156995Y-129578122D01*
X174154000Y-129582243D01*
X173643583Y-129582243D01*
X173641878Y-129576995D01*
X173637757Y-129574000D01*
X172439513Y-129574000D01*
X172428209Y-129577673D01*
X172428060Y-129588362D01*
X171243137Y-129588362D01*
X171242983Y-129577340D01*
X171232455Y-129574000D01*
X169989680Y-129574000D01*
X169976995Y-129578122D01*
X169974000Y-129582243D01*
X169463583Y-129582243D01*
X169461878Y-129576995D01*
X169457757Y-129574000D01*
X168208577Y-129574000D01*
X168197273Y-129577673D01*
X168197124Y-129588362D01*
X166024562Y-129588362D01*
X165977188Y-129312662D01*
X165910515Y-129083916D01*
X165900927Y-129051023D01*
X168196854Y-129051023D01*
X168197017Y-129062660D01*
X168207545Y-129066000D01*
X169450320Y-129066000D01*
X169463005Y-129061878D01*
X169466000Y-129057757D01*
X169466000Y-128302680D01*
X169461878Y-128289995D01*
X169457757Y-128287000D01*
X169146438Y-128287000D01*
X169141583Y-128287238D01*
X168998203Y-128301297D01*
X168988755Y-128303167D01*
X168804081Y-128358923D01*
X168795177Y-128362592D01*
X168624853Y-128453156D01*
X168616827Y-128458489D01*
X168467342Y-128580406D01*
X168460505Y-128587195D01*
X168337542Y-128735831D01*
X168332158Y-128743814D01*
X168240406Y-128913505D01*
X168236677Y-128922376D01*
X168196854Y-129051023D01*
X165900927Y-129051023D01*
X165881025Y-128982742D01*
X165881024Y-128982738D01*
X165880241Y-128980053D01*
X165865614Y-128945171D01*
X165747355Y-128663156D01*
X165747354Y-128663154D01*
X165746265Y-128660557D01*
X165707107Y-128590634D01*
X165578359Y-128360738D01*
X165576983Y-128358281D01*
X165575341Y-128356000D01*
X165376204Y-128079383D01*
X165376203Y-128079382D01*
X165374569Y-128077112D01*
X165265003Y-127956489D01*
X169693683Y-127956489D01*
X169730952Y-128095577D01*
X169734388Y-128101387D01*
X169777483Y-128174256D01*
X169804251Y-128219519D01*
X169809120Y-128224188D01*
X169809123Y-128224192D01*
X169871739Y-128284238D01*
X169908180Y-128319184D01*
X169921782Y-128326477D01*
X169964131Y-128370636D01*
X169974000Y-128413726D01*
X169974000Y-129050320D01*
X169978122Y-129063005D01*
X169982243Y-129066000D01*
X171231423Y-129066000D01*
X171242727Y-129062327D01*
X171242876Y-129051638D01*
X171242694Y-129051021D01*
X172427900Y-129051021D01*
X172428062Y-129062660D01*
X172438590Y-129066000D01*
X173630320Y-129066000D01*
X173643005Y-129061878D01*
X173646000Y-129057757D01*
X173646000Y-128327680D01*
X173643583Y-128320243D01*
X174154000Y-128320243D01*
X174154000Y-129050320D01*
X174158122Y-129063005D01*
X174162243Y-129066000D01*
X175360487Y-129066000D01*
X175371791Y-129062327D01*
X175371940Y-129051638D01*
X175340605Y-128945171D01*
X175336992Y-128936230D01*
X175249888Y-128769615D01*
X175244604Y-128761539D01*
X175126794Y-128615013D01*
X175120053Y-128608129D01*
X174976021Y-128487273D01*
X174968067Y-128481826D01*
X174803311Y-128391251D01*
X174794446Y-128387451D01*
X174615230Y-128330600D01*
X174605802Y-128328596D01*
X174460595Y-128312309D01*
X174455066Y-128312000D01*
X174169680Y-128312000D01*
X174156995Y-128316122D01*
X174154000Y-128320243D01*
X173643583Y-128320243D01*
X173641878Y-128314995D01*
X173637757Y-128312000D01*
X173351421Y-128312000D01*
X173346606Y-128312235D01*
X173208051Y-128325820D01*
X173198614Y-128327689D01*
X173018608Y-128382036D01*
X173009704Y-128385707D01*
X172843687Y-128473979D01*
X172835661Y-128479312D01*
X172689958Y-128598145D01*
X172683121Y-128604934D01*
X172563268Y-128749811D01*
X172557884Y-128757794D01*
X172468459Y-128923182D01*
X172464719Y-128932079D01*
X172427900Y-129051021D01*
X171242694Y-129051021D01*
X171208782Y-128935797D01*
X171205177Y-128926873D01*
X171115803Y-128755918D01*
X171110529Y-128747858D01*
X170989657Y-128597522D01*
X170982911Y-128590634D01*
X170835146Y-128466645D01*
X170827199Y-128461204D01*
X170658866Y-128368663D01*
X170616981Y-128324061D01*
X170609312Y-128263358D01*
X170630943Y-128218008D01*
X170641043Y-128206055D01*
X170667916Y-128174256D01*
X170727858Y-128043331D01*
X170750384Y-127901110D01*
X170750500Y-127890000D01*
X170730958Y-127747338D01*
X170728281Y-127741152D01*
X170728280Y-127741148D01*
X170676452Y-127621381D01*
X170676450Y-127621377D01*
X170673771Y-127615187D01*
X170583152Y-127503282D01*
X170465779Y-127419869D01*
X170330297Y-127371093D01*
X170306078Y-127369314D01*
X170193424Y-127361041D01*
X170193420Y-127361041D01*
X170186690Y-127360547D01*
X170180075Y-127361881D01*
X170180072Y-127361881D01*
X170052147Y-127387675D01*
X170045536Y-127389008D01*
X169917236Y-127454380D01*
X169811243Y-127551847D01*
X169807686Y-127557584D01*
X169807685Y-127557585D01*
X169745629Y-127657670D01*
X169735364Y-127674226D01*
X169733481Y-127680708D01*
X169712182Y-127754021D01*
X169695191Y-127812503D01*
X169695120Y-127819250D01*
X169695120Y-127819252D01*
X169694499Y-127878600D01*
X169693683Y-127956489D01*
X165265003Y-127956489D01*
X165141628Y-127820663D01*
X165132324Y-127812503D01*
X164883267Y-127594086D01*
X164883266Y-127594086D01*
X164881154Y-127592233D01*
X164657599Y-127437148D01*
X164598805Y-127396361D01*
X164598803Y-127396360D01*
X164596494Y-127394758D01*
X164291310Y-127230777D01*
X164288704Y-127229737D01*
X164288699Y-127229735D01*
X163972128Y-127103436D01*
X163969524Y-127102397D01*
X163966821Y-127101660D01*
X163637975Y-127012006D01*
X163637969Y-127012005D01*
X163635274Y-127011270D01*
X163632513Y-127010845D01*
X163632508Y-127010844D01*
X163295627Y-126958993D01*
X163295621Y-126958992D01*
X163292857Y-126958567D01*
X163290058Y-126958457D01*
X162949477Y-126945075D01*
X162949475Y-126945075D01*
X162946674Y-126944965D01*
X162902576Y-126948242D01*
X162603969Y-126970432D01*
X162603960Y-126970433D01*
X162601177Y-126970640D01*
X162260808Y-127035261D01*
X161929941Y-127137998D01*
X161612832Y-127277530D01*
X161313557Y-127452062D01*
X161035962Y-127659351D01*
X161033918Y-127661274D01*
X160794593Y-127886410D01*
X160783619Y-127896733D01*
X160781804Y-127898877D01*
X160781803Y-127898878D01*
X160628994Y-128079383D01*
X160559769Y-128161154D01*
X160491479Y-128263358D01*
X160387724Y-128418639D01*
X160367292Y-128449217D01*
X160366011Y-128451704D01*
X160366007Y-128451711D01*
X160209948Y-128754718D01*
X160209944Y-128754726D01*
X160208662Y-128757216D01*
X160207667Y-128759842D01*
X160207664Y-128759849D01*
X160091674Y-129066000D01*
X160085918Y-129081193D01*
X160000638Y-129416983D01*
X159953919Y-129760268D01*
X159953858Y-129763076D01*
X159947536Y-130052805D01*
X159946361Y-130106635D01*
X133053174Y-130106635D01*
X133054735Y-130035066D01*
X133055500Y-130000000D01*
X133049605Y-129896186D01*
X133036018Y-129656903D01*
X133036017Y-129656898D01*
X133035859Y-129654108D01*
X132977188Y-129312662D01*
X132910515Y-129083916D01*
X132881025Y-128982742D01*
X132881024Y-128982738D01*
X132880241Y-128980053D01*
X132865614Y-128945171D01*
X132747355Y-128663156D01*
X132747354Y-128663154D01*
X132746265Y-128660557D01*
X132707107Y-128590634D01*
X132578359Y-128360738D01*
X132576983Y-128358281D01*
X132575341Y-128356000D01*
X132376204Y-128079383D01*
X132376203Y-128079382D01*
X132374569Y-128077112D01*
X132141628Y-127820663D01*
X132132324Y-127812503D01*
X131883267Y-127594086D01*
X131883266Y-127594086D01*
X131881154Y-127592233D01*
X131657599Y-127437148D01*
X131598805Y-127396361D01*
X131598803Y-127396360D01*
X131596494Y-127394758D01*
X131291310Y-127230777D01*
X131288704Y-127229737D01*
X131288699Y-127229735D01*
X130972128Y-127103436D01*
X130969524Y-127102397D01*
X130966821Y-127101660D01*
X130637975Y-127012006D01*
X130637969Y-127012005D01*
X130635274Y-127011270D01*
X130632513Y-127010845D01*
X130632508Y-127010844D01*
X130295627Y-126958993D01*
X130295621Y-126958992D01*
X130292857Y-126958567D01*
X130290058Y-126958457D01*
X129949477Y-126945075D01*
X129949475Y-126945075D01*
X129946674Y-126944965D01*
X129902576Y-126948242D01*
X129603969Y-126970432D01*
X129603960Y-126970433D01*
X129601177Y-126970640D01*
X129260808Y-127035261D01*
X128929941Y-127137998D01*
X128612832Y-127277530D01*
X128313557Y-127452062D01*
X128035962Y-127659351D01*
X128033918Y-127661274D01*
X127794593Y-127886410D01*
X127783619Y-127896733D01*
X127781804Y-127898877D01*
X127781803Y-127898878D01*
X127628994Y-128079383D01*
X127559769Y-128161154D01*
X127491479Y-128263358D01*
X127387724Y-128418639D01*
X127367292Y-128449217D01*
X127366011Y-128451704D01*
X127366007Y-128451711D01*
X127209948Y-128754718D01*
X127209944Y-128754726D01*
X127208662Y-128757216D01*
X127207667Y-128759842D01*
X127207664Y-128759849D01*
X127091674Y-129066000D01*
X127085918Y-129081193D01*
X127000638Y-129416983D01*
X126953919Y-129760268D01*
X126953858Y-129763076D01*
X126947536Y-130052805D01*
X126946361Y-130106635D01*
X125905874Y-130106635D01*
X125905874Y-122176489D01*
X169693683Y-122176489D01*
X169730952Y-122315577D01*
X169734388Y-122321387D01*
X169777483Y-122394256D01*
X169804251Y-122439519D01*
X169809120Y-122444188D01*
X169809123Y-122444192D01*
X169866364Y-122499084D01*
X169908180Y-122539184D01*
X170035083Y-122607228D01*
X170041662Y-122608699D01*
X170041666Y-122608700D01*
X170169023Y-122637167D01*
X170169024Y-122637167D01*
X170175609Y-122638639D01*
X170182348Y-122638286D01*
X170182350Y-122638286D01*
X170229620Y-122635808D01*
X170319406Y-122631103D01*
X170385976Y-122608700D01*
X170449485Y-122587327D01*
X170449486Y-122587326D01*
X170455879Y-122585175D01*
X170574974Y-122504238D01*
X170579328Y-122499086D01*
X170579330Y-122499084D01*
X170634576Y-122433708D01*
X170667916Y-122394256D01*
X170727858Y-122263331D01*
X170750384Y-122121110D01*
X170750500Y-122110000D01*
X170730958Y-121967338D01*
X170728281Y-121961152D01*
X170728280Y-121961148D01*
X170676452Y-121841381D01*
X170676450Y-121841377D01*
X170673771Y-121835187D01*
X170628682Y-121779507D01*
X170606757Y-121722387D01*
X170622593Y-121663287D01*
X170659143Y-121629794D01*
X170815146Y-121546844D01*
X170823173Y-121541511D01*
X170972658Y-121419594D01*
X170979495Y-121412805D01*
X171102458Y-121264169D01*
X171107842Y-121256186D01*
X171199594Y-121086495D01*
X171203323Y-121077624D01*
X171243146Y-120948977D01*
X171243137Y-120948362D01*
X172428060Y-120948362D01*
X172459395Y-121054829D01*
X172463008Y-121063770D01*
X172550112Y-121230385D01*
X172555396Y-121238461D01*
X172673206Y-121384987D01*
X172679947Y-121391871D01*
X172823979Y-121512727D01*
X172831933Y-121518174D01*
X172996689Y-121608749D01*
X173005554Y-121612549D01*
X173184770Y-121669400D01*
X173194198Y-121671404D01*
X173339405Y-121687691D01*
X173344934Y-121688000D01*
X173630320Y-121688000D01*
X173643005Y-121683878D01*
X173646000Y-121679757D01*
X173646000Y-120949680D01*
X173643583Y-120942243D01*
X174154000Y-120942243D01*
X174154000Y-121672320D01*
X174158122Y-121685005D01*
X174162243Y-121688000D01*
X174448579Y-121688000D01*
X174453394Y-121687765D01*
X174591949Y-121674180D01*
X174601386Y-121672311D01*
X174781392Y-121617964D01*
X174790296Y-121614293D01*
X174956313Y-121526021D01*
X174964339Y-121520688D01*
X175110042Y-121401855D01*
X175116879Y-121395066D01*
X175236732Y-121250189D01*
X175242116Y-121242206D01*
X175331541Y-121076818D01*
X175335281Y-121067921D01*
X175372100Y-120948979D01*
X175371938Y-120937340D01*
X175361410Y-120934000D01*
X174169680Y-120934000D01*
X174156995Y-120938122D01*
X174154000Y-120942243D01*
X173643583Y-120942243D01*
X173641878Y-120936995D01*
X173637757Y-120934000D01*
X172439513Y-120934000D01*
X172428209Y-120937673D01*
X172428060Y-120948362D01*
X171243137Y-120948362D01*
X171242983Y-120937340D01*
X171232455Y-120934000D01*
X169989680Y-120934000D01*
X169976995Y-120938122D01*
X169974000Y-120942243D01*
X169974000Y-121584791D01*
X169955093Y-121642982D01*
X169927909Y-121666197D01*
X169928791Y-121667465D01*
X169923251Y-121671315D01*
X169917236Y-121674380D01*
X169912268Y-121678948D01*
X169912267Y-121678949D01*
X169893880Y-121695857D01*
X169811243Y-121771847D01*
X169807686Y-121777584D01*
X169807685Y-121777585D01*
X169738921Y-121888489D01*
X169735364Y-121894226D01*
X169733481Y-121900708D01*
X169712182Y-121974021D01*
X169695191Y-122032503D01*
X169693683Y-122176489D01*
X125905874Y-122176489D01*
X125905874Y-120948362D01*
X168197124Y-120948362D01*
X168231218Y-121064203D01*
X168234823Y-121073127D01*
X168324197Y-121244082D01*
X168329471Y-121252142D01*
X168450343Y-121402478D01*
X168457089Y-121409366D01*
X168604854Y-121533355D01*
X168612809Y-121538802D01*
X168781840Y-121631727D01*
X168790705Y-121635526D01*
X168974571Y-121693852D01*
X168984002Y-121695857D01*
X169134078Y-121712691D01*
X169139603Y-121713000D01*
X169450320Y-121713000D01*
X169463005Y-121708878D01*
X169466000Y-121704757D01*
X169466000Y-120949680D01*
X169461878Y-120936995D01*
X169457757Y-120934000D01*
X168208577Y-120934000D01*
X168197273Y-120937673D01*
X168197124Y-120948362D01*
X125905874Y-120948362D01*
X125905874Y-120411023D01*
X168196854Y-120411023D01*
X168197017Y-120422660D01*
X168207545Y-120426000D01*
X169450320Y-120426000D01*
X169463005Y-120421878D01*
X169466000Y-120417757D01*
X169466000Y-119662680D01*
X169463583Y-119655243D01*
X169974000Y-119655243D01*
X169974000Y-120410320D01*
X169978122Y-120423005D01*
X169982243Y-120426000D01*
X171231423Y-120426000D01*
X171242727Y-120422327D01*
X171242876Y-120411638D01*
X171242694Y-120411021D01*
X172427900Y-120411021D01*
X172428062Y-120422660D01*
X172438590Y-120426000D01*
X173630320Y-120426000D01*
X173643005Y-120421878D01*
X173646000Y-120417757D01*
X173646000Y-119687680D01*
X173643583Y-119680243D01*
X174154000Y-119680243D01*
X174154000Y-120410320D01*
X174158122Y-120423005D01*
X174162243Y-120426000D01*
X175360487Y-120426000D01*
X175371791Y-120422327D01*
X175371940Y-120411638D01*
X175340605Y-120305171D01*
X175336992Y-120296230D01*
X175249888Y-120129615D01*
X175244604Y-120121539D01*
X175126794Y-119975013D01*
X175120053Y-119968129D01*
X174976021Y-119847273D01*
X174968067Y-119841826D01*
X174803311Y-119751251D01*
X174794446Y-119747451D01*
X174615230Y-119690600D01*
X174605802Y-119688596D01*
X174460595Y-119672309D01*
X174455066Y-119672000D01*
X174169680Y-119672000D01*
X174156995Y-119676122D01*
X174154000Y-119680243D01*
X173643583Y-119680243D01*
X173641878Y-119674995D01*
X173637757Y-119672000D01*
X173351421Y-119672000D01*
X173346606Y-119672235D01*
X173208051Y-119685820D01*
X173198614Y-119687689D01*
X173018608Y-119742036D01*
X173009704Y-119745707D01*
X172843687Y-119833979D01*
X172835661Y-119839312D01*
X172689958Y-119958145D01*
X172683121Y-119964934D01*
X172563268Y-120109811D01*
X172557884Y-120117794D01*
X172468459Y-120283182D01*
X172464719Y-120292079D01*
X172427900Y-120411021D01*
X171242694Y-120411021D01*
X171208782Y-120295797D01*
X171205177Y-120286873D01*
X171115803Y-120115918D01*
X171110529Y-120107858D01*
X170989657Y-119957522D01*
X170982911Y-119950634D01*
X170835146Y-119826645D01*
X170827191Y-119821198D01*
X170658160Y-119728273D01*
X170649295Y-119724474D01*
X170465429Y-119666148D01*
X170455998Y-119664143D01*
X170305922Y-119647309D01*
X170300397Y-119647000D01*
X169989680Y-119647000D01*
X169976995Y-119651122D01*
X169974000Y-119655243D01*
X169463583Y-119655243D01*
X169461878Y-119649995D01*
X169457757Y-119647000D01*
X169146438Y-119647000D01*
X169141583Y-119647238D01*
X168998203Y-119661297D01*
X168988755Y-119663167D01*
X168804081Y-119718923D01*
X168795177Y-119722592D01*
X168624853Y-119813156D01*
X168616827Y-119818489D01*
X168467342Y-119940406D01*
X168460505Y-119947195D01*
X168337542Y-120095831D01*
X168332158Y-120103814D01*
X168240406Y-120273505D01*
X168236677Y-120282376D01*
X168196854Y-120411023D01*
X125905874Y-120411023D01*
X125905874Y-110064744D01*
X160245084Y-110064744D01*
X160284232Y-110195646D01*
X160360140Y-110309249D01*
X160466095Y-110395511D01*
X160592732Y-110446804D01*
X160600104Y-110447442D01*
X160600106Y-110447443D01*
X160698126Y-110455932D01*
X160754469Y-110479790D01*
X160759588Y-110484559D01*
X164800672Y-114525644D01*
X164802721Y-114528018D01*
X164804739Y-114532147D01*
X164811441Y-114538364D01*
X164837029Y-114562100D01*
X164839705Y-114564677D01*
X164856497Y-114581469D01*
X164860256Y-114584048D01*
X164862337Y-114585777D01*
X164866394Y-114589340D01*
X164880052Y-114602010D01*
X164880055Y-114602012D01*
X164886755Y-114608227D01*
X164897436Y-114612488D01*
X164916753Y-114622803D01*
X164926229Y-114629304D01*
X164952131Y-114635451D01*
X164965934Y-114639817D01*
X164990661Y-114649682D01*
X164999004Y-114650500D01*
X165003954Y-114650500D01*
X165025073Y-114652971D01*
X165026183Y-114653025D01*
X165035077Y-114655136D01*
X165056475Y-114652224D01*
X165062500Y-114651404D01*
X165075850Y-114650500D01*
X168945500Y-114650500D01*
X169003691Y-114669407D01*
X169039655Y-114718907D01*
X169044500Y-114749500D01*
X169044500Y-114850000D01*
X169060143Y-114928641D01*
X169104690Y-114995310D01*
X169171359Y-115039857D01*
X169180922Y-115041759D01*
X169180924Y-115041760D01*
X169206200Y-115046787D01*
X169250000Y-115055500D01*
X169683404Y-115055500D01*
X169699828Y-115056872D01*
X169700475Y-115056981D01*
X169703568Y-115057501D01*
X169719871Y-115058964D01*
X169733239Y-115060163D01*
X169733243Y-115060163D01*
X169735147Y-115060334D01*
X169743095Y-115060431D01*
X169745593Y-115060462D01*
X169745597Y-115060462D01*
X169747485Y-115060485D01*
X169749372Y-115060362D01*
X169749378Y-115060362D01*
X169777214Y-115058550D01*
X169777218Y-115058550D01*
X169779132Y-115058425D01*
X169781037Y-115058152D01*
X169781039Y-115058152D01*
X169792574Y-115056500D01*
X169806608Y-115055500D01*
X170183404Y-115055500D01*
X170199828Y-115056872D01*
X170200475Y-115056981D01*
X170203568Y-115057501D01*
X170219871Y-115058964D01*
X170233239Y-115060163D01*
X170233243Y-115060163D01*
X170235147Y-115060334D01*
X170243095Y-115060431D01*
X170245593Y-115060462D01*
X170245597Y-115060462D01*
X170247485Y-115060485D01*
X170249372Y-115060362D01*
X170249378Y-115060362D01*
X170277214Y-115058550D01*
X170277218Y-115058550D01*
X170279132Y-115058425D01*
X170281037Y-115058152D01*
X170281039Y-115058152D01*
X170292574Y-115056500D01*
X170306608Y-115055500D01*
X170750000Y-115055500D01*
X170793800Y-115046787D01*
X170819076Y-115041760D01*
X170819078Y-115041759D01*
X170828641Y-115039857D01*
X170895310Y-114995310D01*
X170939857Y-114928641D01*
X170955500Y-114850000D01*
X170955500Y-114350000D01*
X170955483Y-114349915D01*
X170955421Y-114348575D01*
X170955802Y-114286244D01*
X170955824Y-114282720D01*
X170947916Y-114224992D01*
X170908569Y-114087321D01*
X170884778Y-114034136D01*
X170808374Y-113913042D01*
X170770611Y-113868670D01*
X170663291Y-113773888D01*
X170660356Y-113771960D01*
X170660352Y-113771957D01*
X170617536Y-113743833D01*
X170614592Y-113741899D01*
X170554765Y-113713810D01*
X170488166Y-113682542D01*
X170488161Y-113682540D01*
X170484983Y-113681048D01*
X170446907Y-113669407D01*
X170432626Y-113665040D01*
X170432623Y-113665039D01*
X170429263Y-113664012D01*
X170425791Y-113663471D01*
X170425785Y-113663470D01*
X170291267Y-113642526D01*
X170291265Y-113642526D01*
X170287785Y-113641984D01*
X170284267Y-113641941D01*
X170284266Y-113641941D01*
X170258655Y-113641629D01*
X170229525Y-113641273D01*
X170226030Y-113641730D01*
X170211239Y-113643664D01*
X170198403Y-113644500D01*
X169811597Y-113644500D01*
X169796367Y-113643321D01*
X169793986Y-113642951D01*
X169787785Y-113641985D01*
X169729525Y-113641273D01*
X169587550Y-113659838D01*
X169584156Y-113660786D01*
X169584154Y-113660786D01*
X169534833Y-113674556D01*
X169534831Y-113674557D01*
X169531431Y-113675506D01*
X169528204Y-113676926D01*
X169528201Y-113676927D01*
X169515440Y-113682542D01*
X169400375Y-113733172D01*
X169397387Y-113735032D01*
X169353895Y-113762103D01*
X169353891Y-113762106D01*
X169350909Y-113763962D01*
X169241305Y-113856094D01*
X169238957Y-113858720D01*
X169204810Y-113896910D01*
X169204806Y-113896916D01*
X169202469Y-113899529D01*
X169132023Y-114005358D01*
X169084040Y-114043321D01*
X169049612Y-114049500D01*
X165215479Y-114049500D01*
X165157288Y-114030593D01*
X165145475Y-114020504D01*
X161187940Y-110062968D01*
X161160163Y-110008451D01*
X161159480Y-110002486D01*
X161159500Y-110000000D01*
X161147633Y-109921063D01*
X161140287Y-109872205D01*
X161139187Y-109864888D01*
X161104071Y-109791758D01*
X161083248Y-109748395D01*
X161083247Y-109748394D01*
X161080044Y-109741723D01*
X160987299Y-109641392D01*
X160869153Y-109572768D01*
X160736052Y-109541916D01*
X160657575Y-109547473D01*
X160607147Y-109551043D01*
X160607146Y-109551043D01*
X160599763Y-109551566D01*
X160472337Y-109600864D01*
X160466523Y-109605448D01*
X160466522Y-109605448D01*
X160370852Y-109680868D01*
X160370851Y-109680870D01*
X160365039Y-109685451D01*
X160287356Y-109797848D01*
X160246157Y-109928118D01*
X160245084Y-110064744D01*
X125905874Y-110064744D01*
X125905874Y-94455077D01*
X162964864Y-94455077D01*
X162966097Y-94464134D01*
X162968596Y-94482500D01*
X162969500Y-94495850D01*
X162969500Y-108477892D01*
X162969270Y-108481024D01*
X162967777Y-108485372D01*
X162968120Y-108494508D01*
X162969430Y-108529401D01*
X162969500Y-108533115D01*
X162969500Y-108556846D01*
X162970335Y-108561330D01*
X162970582Y-108564004D01*
X162970931Y-108569389D01*
X162971974Y-108597162D01*
X162975580Y-108605557D01*
X162975581Y-108605559D01*
X162976514Y-108607730D01*
X162982877Y-108628674D01*
X162984983Y-108639979D01*
X162989780Y-108647761D01*
X162989781Y-108647764D01*
X162998948Y-108662636D01*
X163005630Y-108675499D01*
X163016134Y-108699948D01*
X163020566Y-108705344D01*
X163020568Y-108705347D01*
X163021455Y-108706426D01*
X163021302Y-108706552D01*
X163024203Y-108711319D01*
X163023199Y-108711930D01*
X163044926Y-108760301D01*
X163045500Y-108771750D01*
X163045084Y-108824744D01*
X163084232Y-108955646D01*
X163160140Y-109069249D01*
X163266095Y-109155511D01*
X163392732Y-109206804D01*
X163400104Y-109207442D01*
X163400106Y-109207443D01*
X163454228Y-109212130D01*
X163528852Y-109218593D01*
X163536083Y-109217036D01*
X163536086Y-109217036D01*
X163655187Y-109191395D01*
X163655189Y-109191394D01*
X163662422Y-109189837D01*
X163781631Y-109123076D01*
X163786739Y-109117721D01*
X163786742Y-109117719D01*
X163838847Y-109063098D01*
X163875940Y-109024215D01*
X163907127Y-108961800D01*
X163933701Y-108908616D01*
X163933702Y-108908614D01*
X163937010Y-108901993D01*
X163959443Y-108767218D01*
X163959500Y-108760000D01*
X163939187Y-108624888D01*
X163935807Y-108617848D01*
X163883248Y-108508395D01*
X163883247Y-108508394D01*
X163880044Y-108501723D01*
X163871384Y-108492354D01*
X163792323Y-108406827D01*
X163787299Y-108401392D01*
X163669153Y-108332768D01*
X163647146Y-108327667D01*
X163594728Y-108296109D01*
X163570869Y-108239767D01*
X163570500Y-108231224D01*
X163570500Y-94635479D01*
X163589407Y-94577288D01*
X163599496Y-94565475D01*
X164295475Y-93869496D01*
X164349992Y-93841719D01*
X164365479Y-93840500D01*
X167957892Y-93840500D01*
X167961024Y-93840730D01*
X167965372Y-93842223D01*
X167974508Y-93841880D01*
X168009401Y-93840570D01*
X168013115Y-93840500D01*
X168036846Y-93840500D01*
X168041330Y-93839665D01*
X168044004Y-93839418D01*
X168049389Y-93839069D01*
X168068029Y-93838369D01*
X168068030Y-93838369D01*
X168077162Y-93838026D01*
X168085557Y-93834420D01*
X168085559Y-93834419D01*
X168087730Y-93833486D01*
X168108674Y-93827123D01*
X168110168Y-93826844D01*
X168110992Y-93826691D01*
X168110993Y-93826691D01*
X168119979Y-93825017D01*
X168127761Y-93820220D01*
X168127764Y-93820219D01*
X168142636Y-93811052D01*
X168155499Y-93804370D01*
X168179948Y-93793866D01*
X168186426Y-93788545D01*
X168189929Y-93785042D01*
X168206604Y-93771861D01*
X168207429Y-93771113D01*
X168215211Y-93766316D01*
X168231957Y-93744294D01*
X168240756Y-93734215D01*
X172248752Y-89726219D01*
X172303269Y-89698442D01*
X172327295Y-89697592D01*
X172338852Y-89698593D01*
X172346084Y-89697036D01*
X172346085Y-89697036D01*
X172465187Y-89671395D01*
X172465189Y-89671394D01*
X172472422Y-89669837D01*
X172591631Y-89603076D01*
X172596739Y-89597721D01*
X172596742Y-89597719D01*
X172641939Y-89550340D01*
X172685940Y-89504215D01*
X172747010Y-89381993D01*
X172769443Y-89247218D01*
X172769500Y-89240000D01*
X172757633Y-89161063D01*
X172750287Y-89112205D01*
X172749187Y-89104888D01*
X172714071Y-89031758D01*
X172693248Y-88988395D01*
X172693247Y-88988394D01*
X172690044Y-88981723D01*
X172597299Y-88881392D01*
X172479153Y-88812768D01*
X172346052Y-88781916D01*
X172267575Y-88787473D01*
X172217147Y-88791043D01*
X172217146Y-88791043D01*
X172209763Y-88791566D01*
X172082337Y-88840864D01*
X172076523Y-88845448D01*
X172076522Y-88845448D01*
X171980852Y-88920868D01*
X171980851Y-88920870D01*
X171975039Y-88925451D01*
X171897356Y-89037848D01*
X171856157Y-89168118D01*
X171856099Y-89175517D01*
X171855678Y-89229116D01*
X171836314Y-89287157D01*
X171826685Y-89298343D01*
X167914524Y-93210504D01*
X167860007Y-93238281D01*
X167844520Y-93239500D01*
X164252109Y-93239500D01*
X164248977Y-93239270D01*
X164244629Y-93237777D01*
X164231205Y-93238281D01*
X164200600Y-93239430D01*
X164196886Y-93239500D01*
X164173154Y-93239500D01*
X164168670Y-93240335D01*
X164165996Y-93240582D01*
X164160611Y-93240931D01*
X164141971Y-93241631D01*
X164141970Y-93241631D01*
X164132838Y-93241974D01*
X164124443Y-93245580D01*
X164124441Y-93245581D01*
X164122270Y-93246514D01*
X164101326Y-93252877D01*
X164099832Y-93253156D01*
X164099008Y-93253309D01*
X164099007Y-93253309D01*
X164090021Y-93254983D01*
X164082239Y-93259780D01*
X164082236Y-93259781D01*
X164067364Y-93268948D01*
X164054501Y-93275630D01*
X164030052Y-93286134D01*
X164023574Y-93291455D01*
X164020071Y-93294958D01*
X164003396Y-93308139D01*
X164002571Y-93308887D01*
X163994789Y-93313684D01*
X163989257Y-93320959D01*
X163989256Y-93320960D01*
X163978044Y-93335705D01*
X163969244Y-93345785D01*
X163094356Y-94220672D01*
X163091982Y-94222721D01*
X163087853Y-94224739D01*
X163081636Y-94231441D01*
X163057900Y-94257029D01*
X163055323Y-94259705D01*
X163038531Y-94276497D01*
X163035952Y-94280256D01*
X163034223Y-94282337D01*
X163030660Y-94286394D01*
X163017990Y-94300052D01*
X163017988Y-94300055D01*
X163011773Y-94306755D01*
X163007512Y-94317436D01*
X162997197Y-94336753D01*
X162990696Y-94346229D01*
X162984549Y-94372131D01*
X162980183Y-94385934D01*
X162970318Y-94410661D01*
X162969500Y-94419004D01*
X162969500Y-94423954D01*
X162967029Y-94445073D01*
X162966975Y-94446183D01*
X162964864Y-94455077D01*
X125905874Y-94455077D01*
X125905874Y-82106635D01*
X126946361Y-82106635D01*
X126978062Y-82451632D01*
X126978635Y-82454388D01*
X126978636Y-82454393D01*
X126984113Y-82480725D01*
X127048614Y-82790822D01*
X127049493Y-82793488D01*
X127049495Y-82793495D01*
X127057973Y-82819204D01*
X127157109Y-83119844D01*
X127302154Y-83434470D01*
X127481882Y-83730654D01*
X127693985Y-84004588D01*
X127935734Y-84252751D01*
X128204022Y-84471951D01*
X128206373Y-84473463D01*
X128206381Y-84473469D01*
X128493047Y-84657859D01*
X128493053Y-84657863D01*
X128495400Y-84659372D01*
X128806121Y-84812603D01*
X129132191Y-84929674D01*
X129134910Y-84930314D01*
X129134916Y-84930316D01*
X129315781Y-84972903D01*
X129469418Y-85009080D01*
X129472196Y-85009409D01*
X129472197Y-85009409D01*
X129570383Y-85021030D01*
X129813466Y-85049801D01*
X129962939Y-85050453D01*
X130157098Y-85051301D01*
X130157103Y-85051301D01*
X130159913Y-85051313D01*
X130176723Y-85049472D01*
X130501513Y-85013902D01*
X130501521Y-85013901D01*
X130504303Y-85013596D01*
X130507040Y-85012977D01*
X130507044Y-85012976D01*
X130839471Y-84937755D01*
X130839475Y-84937754D01*
X130842210Y-84937135D01*
X131169289Y-84822914D01*
X131171807Y-84821700D01*
X131171813Y-84821697D01*
X131478805Y-84673622D01*
X131478808Y-84673620D01*
X131481336Y-84672401D01*
X131774338Y-84487530D01*
X131776524Y-84485776D01*
X131776529Y-84485772D01*
X132042334Y-84272441D01*
X132042337Y-84272438D01*
X132044529Y-84270679D01*
X132060534Y-84254534D01*
X132286451Y-84026637D01*
X132286456Y-84026631D01*
X132288434Y-84024636D01*
X132304239Y-84004588D01*
X132501170Y-83754782D01*
X132501173Y-83754778D01*
X132502919Y-83752563D01*
X132685226Y-83457959D01*
X132833010Y-83144610D01*
X132944373Y-82816547D01*
X133017882Y-82477986D01*
X133052592Y-82133279D01*
X133053113Y-82109431D01*
X133055457Y-82001949D01*
X133055500Y-82000000D01*
X133041887Y-81760268D01*
X133036018Y-81656903D01*
X133036017Y-81656898D01*
X133035859Y-81654108D01*
X132977188Y-81312662D01*
X132910515Y-81083916D01*
X132881025Y-80982742D01*
X132881024Y-80982738D01*
X132880241Y-80980053D01*
X132879158Y-80977470D01*
X132747355Y-80663156D01*
X132747354Y-80663154D01*
X132746265Y-80660557D01*
X132576983Y-80358281D01*
X132388063Y-80095856D01*
X132376204Y-80079383D01*
X132376203Y-80079382D01*
X132374569Y-80077112D01*
X132141628Y-79820663D01*
X132033481Y-79725820D01*
X131883267Y-79594086D01*
X131883266Y-79594086D01*
X131881154Y-79592233D01*
X131596494Y-79394758D01*
X131291310Y-79230777D01*
X131288704Y-79229737D01*
X131288699Y-79229735D01*
X130972128Y-79103436D01*
X130969524Y-79102397D01*
X130966821Y-79101660D01*
X130637975Y-79012006D01*
X130637969Y-79012005D01*
X130635274Y-79011270D01*
X130632513Y-79010845D01*
X130632508Y-79010844D01*
X130295627Y-78958993D01*
X130295621Y-78958992D01*
X130292857Y-78958567D01*
X130290058Y-78958457D01*
X129949477Y-78945075D01*
X129949475Y-78945075D01*
X129946674Y-78944965D01*
X129902576Y-78948242D01*
X129603969Y-78970432D01*
X129603960Y-78970433D01*
X129601177Y-78970640D01*
X129260808Y-79035261D01*
X128929941Y-79137998D01*
X128612832Y-79277530D01*
X128610410Y-79278942D01*
X128610407Y-79278944D01*
X128414102Y-79393426D01*
X128313557Y-79452062D01*
X128035962Y-79659351D01*
X127965304Y-79725820D01*
X127813736Y-79868402D01*
X127783619Y-79896733D01*
X127781804Y-79898877D01*
X127781803Y-79898878D01*
X127570956Y-80147940D01*
X127559769Y-80161154D01*
X127367292Y-80449217D01*
X127366011Y-80451704D01*
X127366007Y-80451711D01*
X127209948Y-80754718D01*
X127209944Y-80754726D01*
X127208662Y-80757216D01*
X127207667Y-80759842D01*
X127207664Y-80759849D01*
X127099041Y-81046555D01*
X127085918Y-81081193D01*
X127000638Y-81416983D01*
X126953919Y-81760268D01*
X126946361Y-82106635D01*
X125905874Y-82106635D01*
X125905874Y-81628173D01*
X125908008Y-81609254D01*
X125909178Y-81606051D01*
X125910119Y-81596571D01*
X125910467Y-81568879D01*
X125912298Y-81422888D01*
X125912426Y-81418949D01*
X125916566Y-81339954D01*
X125916972Y-81334787D01*
X125919298Y-81312662D01*
X125924903Y-81259328D01*
X125943468Y-81082696D01*
X125944145Y-81077558D01*
X125953878Y-81016103D01*
X125954822Y-81011006D01*
X125982887Y-80878971D01*
X126007521Y-80763077D01*
X126008719Y-80758087D01*
X126024844Y-80697907D01*
X126026307Y-80692968D01*
X126104633Y-80451904D01*
X126106359Y-80447030D01*
X126128688Y-80388862D01*
X126130652Y-80384121D01*
X126219947Y-80183562D01*
X126233725Y-80152617D01*
X126235956Y-80147940D01*
X126264239Y-80092430D01*
X126266713Y-80087874D01*
X126272927Y-80077112D01*
X126294388Y-80039939D01*
X126393426Y-79868402D01*
X126396133Y-79863983D01*
X126422914Y-79822744D01*
X126430039Y-79811774D01*
X126432960Y-79807523D01*
X126581937Y-79602473D01*
X126585093Y-79598361D01*
X126624285Y-79549963D01*
X126627651Y-79546022D01*
X126797204Y-79357715D01*
X126800771Y-79353955D01*
X126844831Y-79309895D01*
X126848591Y-79306328D01*
X127036896Y-79136777D01*
X127040837Y-79133411D01*
X127089235Y-79094219D01*
X127093347Y-79091063D01*
X127298397Y-78942086D01*
X127302648Y-78939165D01*
X127354868Y-78905252D01*
X127359276Y-78902552D01*
X127578747Y-78775840D01*
X127583303Y-78773366D01*
X127638799Y-78745090D01*
X127643476Y-78742859D01*
X127874992Y-78639781D01*
X127879781Y-78637797D01*
X127937904Y-78615486D01*
X127942789Y-78613756D01*
X128183847Y-78535432D01*
X128188816Y-78533961D01*
X128248915Y-78517857D01*
X128253947Y-78516648D01*
X128501906Y-78463942D01*
X128506958Y-78463007D01*
X128556431Y-78455171D01*
X128568435Y-78453270D01*
X128573571Y-78452593D01*
X128603906Y-78449405D01*
X128825655Y-78426099D01*
X128830821Y-78425693D01*
X128871575Y-78423557D01*
X128909843Y-78421551D01*
X128913741Y-78421425D01*
X129059753Y-78419593D01*
X129076690Y-78416555D01*
X129094169Y-78415000D01*
X144901000Y-78415000D01*
X144959191Y-78433907D01*
G37*
%TD.AperFunction*%
%TD*%
M02*
