%TF.GenerationSoftware,KiCad,Pcbnew,(5.99.0-10632-g8f3343b9e3)*%
%TF.CreationDate,2021-06-08T13:19:10-04:00*%
%TF.ProjectId,rpi-cm4-LiM-board,7270692d-636d-4342-9d4c-694d2d626f61,v01*%
%TF.SameCoordinates,Original*%
%TF.FileFunction,Legend,Bot*%
%TF.FilePolarity,Positive*%
%FSLAX46Y46*%
G04 Gerber Fmt 4.6, Leading zero omitted, Abs format (unit mm)*
G04 Created by KiCad (PCBNEW (5.99.0-10632-g8f3343b9e3)) date 2021-06-08 13:19:10*
%MOMM*%
%LPD*%
G01*
G04 APERTURE LIST*
%ADD10C,0.300000*%
%ADD11C,0.150000*%
%ADD12C,0.120000*%
G04 APERTURE END LIST*
D10*
X151214285Y-105294761D02*
X151880952Y-104342380D01*
X152357142Y-105294761D02*
X152357142Y-103294761D01*
X151595238Y-103294761D01*
X151404761Y-103390000D01*
X151309523Y-103485238D01*
X151214285Y-103675714D01*
X151214285Y-103961428D01*
X151309523Y-104151904D01*
X151404761Y-104247142D01*
X151595238Y-104342380D01*
X152357142Y-104342380D01*
X150357142Y-105294761D02*
X150357142Y-103294761D01*
X149595238Y-103294761D01*
X149404761Y-103390000D01*
X149309523Y-103485238D01*
X149214285Y-103675714D01*
X149214285Y-103961428D01*
X149309523Y-104151904D01*
X149404761Y-104247142D01*
X149595238Y-104342380D01*
X150357142Y-104342380D01*
X148357142Y-105294761D02*
X148357142Y-103961428D01*
X148357142Y-103294761D02*
X148452380Y-103390000D01*
X148357142Y-103485238D01*
X148261904Y-103390000D01*
X148357142Y-103294761D01*
X148357142Y-103485238D01*
X144738095Y-105104285D02*
X144833333Y-105199523D01*
X145119047Y-105294761D01*
X145309523Y-105294761D01*
X145595238Y-105199523D01*
X145785714Y-105009047D01*
X145880952Y-104818571D01*
X145976190Y-104437619D01*
X145976190Y-104151904D01*
X145880952Y-103770952D01*
X145785714Y-103580476D01*
X145595238Y-103390000D01*
X145309523Y-103294761D01*
X145119047Y-103294761D01*
X144833333Y-103390000D01*
X144738095Y-103485238D01*
X143880952Y-105294761D02*
X143880952Y-103294761D01*
X143214285Y-104723333D01*
X142547619Y-103294761D01*
X142547619Y-105294761D01*
X140738095Y-103961428D02*
X140738095Y-105294761D01*
X141214285Y-103199523D02*
X141690476Y-104628095D01*
X140452380Y-104628095D01*
X158452380Y-108514761D02*
X159404761Y-108514761D01*
X159404761Y-106514761D01*
X157785714Y-108514761D02*
X157785714Y-107181428D01*
X157785714Y-106514761D02*
X157880952Y-106610000D01*
X157785714Y-106705238D01*
X157690476Y-106610000D01*
X157785714Y-106514761D01*
X157785714Y-106705238D01*
X156833333Y-108514761D02*
X156833333Y-106514761D01*
X156166666Y-107943333D01*
X155500000Y-106514761D01*
X155500000Y-108514761D01*
X151880952Y-108324285D02*
X151976190Y-108419523D01*
X152261904Y-108514761D01*
X152452380Y-108514761D01*
X152738095Y-108419523D01*
X152928571Y-108229047D01*
X153023809Y-108038571D01*
X153119047Y-107657619D01*
X153119047Y-107371904D01*
X153023809Y-106990952D01*
X152928571Y-106800476D01*
X152738095Y-106610000D01*
X152452380Y-106514761D01*
X152261904Y-106514761D01*
X151976190Y-106610000D01*
X151880952Y-106705238D01*
X150166666Y-108514761D02*
X150166666Y-107467142D01*
X150261904Y-107276666D01*
X150452380Y-107181428D01*
X150833333Y-107181428D01*
X151023809Y-107276666D01*
X150166666Y-108419523D02*
X150357142Y-108514761D01*
X150833333Y-108514761D01*
X151023809Y-108419523D01*
X151119047Y-108229047D01*
X151119047Y-108038571D01*
X151023809Y-107848095D01*
X150833333Y-107752857D01*
X150357142Y-107752857D01*
X150166666Y-107657619D01*
X149214285Y-108514761D02*
X149214285Y-107181428D01*
X149214285Y-107562380D02*
X149119047Y-107371904D01*
X149023809Y-107276666D01*
X148833333Y-107181428D01*
X148642857Y-107181428D01*
X147976190Y-108514761D02*
X147976190Y-107181428D01*
X147976190Y-107562380D02*
X147880952Y-107371904D01*
X147785714Y-107276666D01*
X147595238Y-107181428D01*
X147404761Y-107181428D01*
X146738095Y-108514761D02*
X146738095Y-107181428D01*
X146738095Y-106514761D02*
X146833333Y-106610000D01*
X146738095Y-106705238D01*
X146642857Y-106610000D01*
X146738095Y-106514761D01*
X146738095Y-106705238D01*
X145023809Y-108419523D02*
X145214285Y-108514761D01*
X145595238Y-108514761D01*
X145785714Y-108419523D01*
X145880952Y-108229047D01*
X145880952Y-107467142D01*
X145785714Y-107276666D01*
X145595238Y-107181428D01*
X145214285Y-107181428D01*
X145023809Y-107276666D01*
X144928571Y-107467142D01*
X144928571Y-107657619D01*
X145880952Y-107848095D01*
X144071428Y-108514761D02*
X144071428Y-107181428D01*
X144071428Y-107562380D02*
X143976190Y-107371904D01*
X143880952Y-107276666D01*
X143690476Y-107181428D01*
X143500000Y-107181428D01*
X140642857Y-107467142D02*
X140357142Y-107562380D01*
X140261904Y-107657619D01*
X140166666Y-107848095D01*
X140166666Y-108133809D01*
X140261904Y-108324285D01*
X140357142Y-108419523D01*
X140547619Y-108514761D01*
X141309523Y-108514761D01*
X141309523Y-106514761D01*
X140642857Y-106514761D01*
X140452380Y-106610000D01*
X140357142Y-106705238D01*
X140261904Y-106895714D01*
X140261904Y-107086190D01*
X140357142Y-107276666D01*
X140452380Y-107371904D01*
X140642857Y-107467142D01*
X141309523Y-107467142D01*
X139023809Y-108514761D02*
X139214285Y-108419523D01*
X139309523Y-108324285D01*
X139404761Y-108133809D01*
X139404761Y-107562380D01*
X139309523Y-107371904D01*
X139214285Y-107276666D01*
X139023809Y-107181428D01*
X138738095Y-107181428D01*
X138547619Y-107276666D01*
X138452380Y-107371904D01*
X138357142Y-107562380D01*
X138357142Y-108133809D01*
X138452380Y-108324285D01*
X138547619Y-108419523D01*
X138738095Y-108514761D01*
X139023809Y-108514761D01*
X136642857Y-108514761D02*
X136642857Y-107467142D01*
X136738095Y-107276666D01*
X136928571Y-107181428D01*
X137309523Y-107181428D01*
X137500000Y-107276666D01*
X136642857Y-108419523D02*
X136833333Y-108514761D01*
X137309523Y-108514761D01*
X137500000Y-108419523D01*
X137595238Y-108229047D01*
X137595238Y-108038571D01*
X137500000Y-107848095D01*
X137309523Y-107752857D01*
X136833333Y-107752857D01*
X136642857Y-107657619D01*
X135690476Y-108514761D02*
X135690476Y-107181428D01*
X135690476Y-107562380D02*
X135595238Y-107371904D01*
X135500000Y-107276666D01*
X135309523Y-107181428D01*
X135119047Y-107181428D01*
X133595238Y-108514761D02*
X133595238Y-106514761D01*
X133595238Y-108419523D02*
X133785714Y-108514761D01*
X134166666Y-108514761D01*
X134357142Y-108419523D01*
X134452380Y-108324285D01*
X134547619Y-108133809D01*
X134547619Y-107562380D01*
X134452380Y-107371904D01*
X134357142Y-107276666D01*
X134166666Y-107181428D01*
X133785714Y-107181428D01*
X133595238Y-107276666D01*
D11*
X159690476Y-79285714D02*
X159452380Y-79952380D01*
X159214285Y-79285714D01*
X158642857Y-78952380D02*
X158547619Y-78952380D01*
X158452380Y-79000000D01*
X158404761Y-79047619D01*
X158357142Y-79142857D01*
X158309523Y-79333333D01*
X158309523Y-79571428D01*
X158357142Y-79761904D01*
X158404761Y-79857142D01*
X158452380Y-79904761D01*
X158547619Y-79952380D01*
X158642857Y-79952380D01*
X158738095Y-79904761D01*
X158785714Y-79857142D01*
X158833333Y-79761904D01*
X158880952Y-79571428D01*
X158880952Y-79333333D01*
X158833333Y-79142857D01*
X158785714Y-79047619D01*
X158738095Y-79000000D01*
X158642857Y-78952380D01*
X157357142Y-79952380D02*
X157928571Y-79952380D01*
X157642857Y-79952380D02*
X157642857Y-78952380D01*
X157738095Y-79095238D01*
X157833333Y-79190476D01*
X157928571Y-79238095D01*
%TO.C,JP1*%
X167652380Y-114166666D02*
X168366666Y-114166666D01*
X168509523Y-114119047D01*
X168604761Y-114023809D01*
X168652380Y-113880952D01*
X168652380Y-113785714D01*
X168652380Y-114642857D02*
X167652380Y-114642857D01*
X167652380Y-115023809D01*
X167700000Y-115119047D01*
X167747619Y-115166666D01*
X167842857Y-115214285D01*
X167985714Y-115214285D01*
X168080952Y-115166666D01*
X168128571Y-115119047D01*
X168176190Y-115023809D01*
X168176190Y-114642857D01*
X168652380Y-116166666D02*
X168652380Y-115595238D01*
X168652380Y-115880952D02*
X167652380Y-115880952D01*
X167795238Y-115785714D01*
X167890476Y-115690476D01*
X167938095Y-115595238D01*
D12*
X169700000Y-116400000D02*
X170300000Y-116400000D01*
X169000000Y-114300000D02*
X169000000Y-115700000D01*
X171000000Y-115700000D02*
X171000000Y-114300000D01*
X170300000Y-113600000D02*
X169700000Y-113600000D01*
X169700000Y-113600000D02*
G75*
G03*
X169000000Y-114300000I0J-700000D01*
G01*
X169000000Y-115700000D02*
G75*
G03*
X169700000Y-116400000I700000J0D01*
G01*
X170300000Y-116400000D02*
G75*
G03*
X171000000Y-115700000I0J700000D01*
G01*
X171000000Y-114300000D02*
G75*
G03*
X170300000Y-113600000I-700000J0D01*
G01*
%TD*%
M02*
