%TF.GenerationSoftware,KiCad,Pcbnew,(5.99.0-10632-g8f3343b9e3)*%
%TF.CreationDate,2021-06-08T13:19:10-04:00*%
%TF.ProjectId,rpi-cm4-LiM-board,7270692d-636d-4342-9d4c-694d2d626f61,v01*%
%TF.SameCoordinates,Original*%
%TF.FileFunction,Legend,Top*%
%TF.FilePolarity,Positive*%
%FSLAX46Y46*%
G04 Gerber Fmt 4.6, Leading zero omitted, Abs format (unit mm)*
G04 Created by KiCad (PCBNEW (5.99.0-10632-g8f3343b9e3)) date 2021-06-08 13:19:10*
%MOMM*%
%LPD*%
G01*
G04 APERTURE LIST*
%ADD10C,0.150000*%
%ADD11C,0.120000*%
%ADD12C,0.152400*%
%ADD13C,0.200000*%
G04 APERTURE END LIST*
D10*
%TO.C,R4*%
X169833333Y-109882380D02*
X169500000Y-109406190D01*
X169261904Y-109882380D02*
X169261904Y-108882380D01*
X169642857Y-108882380D01*
X169738095Y-108930000D01*
X169785714Y-108977619D01*
X169833333Y-109072857D01*
X169833333Y-109215714D01*
X169785714Y-109310952D01*
X169738095Y-109358571D01*
X169642857Y-109406190D01*
X169261904Y-109406190D01*
X170690476Y-109215714D02*
X170690476Y-109882380D01*
X170452380Y-108834761D02*
X170214285Y-109549047D01*
X170833333Y-109549047D01*
%TO.C,CR1*%
X169333333Y-111357142D02*
X169285714Y-111404761D01*
X169142857Y-111452380D01*
X169047619Y-111452380D01*
X168904761Y-111404761D01*
X168809523Y-111309523D01*
X168761904Y-111214285D01*
X168714285Y-111023809D01*
X168714285Y-110880952D01*
X168761904Y-110690476D01*
X168809523Y-110595238D01*
X168904761Y-110500000D01*
X169047619Y-110452380D01*
X169142857Y-110452380D01*
X169285714Y-110500000D01*
X169333333Y-110547619D01*
X170333333Y-111452380D02*
X170000000Y-110976190D01*
X169761904Y-111452380D02*
X169761904Y-110452380D01*
X170142857Y-110452380D01*
X170238095Y-110500000D01*
X170285714Y-110547619D01*
X170333333Y-110642857D01*
X170333333Y-110785714D01*
X170285714Y-110880952D01*
X170238095Y-110928571D01*
X170142857Y-110976190D01*
X169761904Y-110976190D01*
X171285714Y-111452380D02*
X170714285Y-111452380D01*
X171000000Y-111452380D02*
X171000000Y-110452380D01*
X170904761Y-110595238D01*
X170809523Y-110690476D01*
X170714285Y-110738095D01*
%TO.C,U1*%
X169876130Y-96338154D02*
X170685654Y-96338154D01*
X170780892Y-96290535D01*
X170828511Y-96242916D01*
X170876130Y-96147678D01*
X170876130Y-95957202D01*
X170828511Y-95861964D01*
X170780892Y-95814345D01*
X170685654Y-95766726D01*
X169876130Y-95766726D01*
X170876130Y-94766726D02*
X170876130Y-95338154D01*
X170876130Y-95052440D02*
X169876130Y-95052440D01*
X170018988Y-95147678D01*
X170114226Y-95242916D01*
X170161845Y-95338154D01*
%TO.C,R2*%
X175306130Y-87742916D02*
X174829940Y-88076250D01*
X175306130Y-88314345D02*
X174306130Y-88314345D01*
X174306130Y-87933392D01*
X174353750Y-87838154D01*
X174401369Y-87790535D01*
X174496607Y-87742916D01*
X174639464Y-87742916D01*
X174734702Y-87790535D01*
X174782321Y-87838154D01*
X174829940Y-87933392D01*
X174829940Y-88314345D01*
X174401369Y-87361964D02*
X174353750Y-87314345D01*
X174306130Y-87219107D01*
X174306130Y-86981011D01*
X174353750Y-86885773D01*
X174401369Y-86838154D01*
X174496607Y-86790535D01*
X174591845Y-86790535D01*
X174734702Y-86838154D01*
X175306130Y-87409583D01*
X175306130Y-86790535D01*
%TO.C,D2*%
X172306130Y-92314345D02*
X171306130Y-92314345D01*
X171306130Y-92076250D01*
X171353750Y-91933392D01*
X171448988Y-91838154D01*
X171544226Y-91790535D01*
X171734702Y-91742916D01*
X171877559Y-91742916D01*
X172068035Y-91790535D01*
X172163273Y-91838154D01*
X172258511Y-91933392D01*
X172306130Y-92076250D01*
X172306130Y-92314345D01*
X171401369Y-91361964D02*
X171353750Y-91314345D01*
X171306130Y-91219107D01*
X171306130Y-90981011D01*
X171353750Y-90885773D01*
X171401369Y-90838154D01*
X171496607Y-90790535D01*
X171591845Y-90790535D01*
X171734702Y-90838154D01*
X172306130Y-91409583D01*
X172306130Y-90790535D01*
%TO.C,J2*%
X167017380Y-127258333D02*
X167731666Y-127258333D01*
X167874523Y-127305952D01*
X167969761Y-127401190D01*
X168017380Y-127544047D01*
X168017380Y-127639285D01*
X167112619Y-126829761D02*
X167065000Y-126782142D01*
X167017380Y-126686904D01*
X167017380Y-126448809D01*
X167065000Y-126353571D01*
X167112619Y-126305952D01*
X167207857Y-126258333D01*
X167303095Y-126258333D01*
X167445952Y-126305952D01*
X168017380Y-126877380D01*
X168017380Y-126258333D01*
%TO.C,D1*%
X172306130Y-88314345D02*
X171306130Y-88314345D01*
X171306130Y-88076250D01*
X171353750Y-87933392D01*
X171448988Y-87838154D01*
X171544226Y-87790535D01*
X171734702Y-87742916D01*
X171877559Y-87742916D01*
X172068035Y-87790535D01*
X172163273Y-87838154D01*
X172258511Y-87933392D01*
X172306130Y-88076250D01*
X172306130Y-88314345D01*
X172306130Y-86790535D02*
X172306130Y-87361964D01*
X172306130Y-87076250D02*
X171306130Y-87076250D01*
X171448988Y-87171488D01*
X171544226Y-87266726D01*
X171591845Y-87361964D01*
%TO.C,R1*%
X169833333Y-106882380D02*
X169500000Y-106406190D01*
X169261904Y-106882380D02*
X169261904Y-105882380D01*
X169642857Y-105882380D01*
X169738095Y-105930000D01*
X169785714Y-105977619D01*
X169833333Y-106072857D01*
X169833333Y-106215714D01*
X169785714Y-106310952D01*
X169738095Y-106358571D01*
X169642857Y-106406190D01*
X169261904Y-106406190D01*
X170785714Y-106882380D02*
X170214285Y-106882380D01*
X170500000Y-106882380D02*
X170500000Y-105882380D01*
X170404761Y-106025238D01*
X170309523Y-106120476D01*
X170214285Y-106168095D01*
%TO.C,R6*%
X175306130Y-91742916D02*
X174829940Y-92076250D01*
X175306130Y-92314345D02*
X174306130Y-92314345D01*
X174306130Y-91933392D01*
X174353750Y-91838154D01*
X174401369Y-91790535D01*
X174496607Y-91742916D01*
X174639464Y-91742916D01*
X174734702Y-91790535D01*
X174782321Y-91838154D01*
X174829940Y-91933392D01*
X174829940Y-92314345D01*
X174306130Y-90885773D02*
X174306130Y-91076250D01*
X174353750Y-91171488D01*
X174401369Y-91219107D01*
X174544226Y-91314345D01*
X174734702Y-91361964D01*
X175115654Y-91361964D01*
X175210892Y-91314345D01*
X175258511Y-91266726D01*
X175306130Y-91171488D01*
X175306130Y-90981011D01*
X175258511Y-90885773D01*
X175210892Y-90838154D01*
X175115654Y-90790535D01*
X174877559Y-90790535D01*
X174782321Y-90838154D01*
X174734702Y-90885773D01*
X174687083Y-90981011D01*
X174687083Y-91171488D01*
X174734702Y-91266726D01*
X174782321Y-91314345D01*
X174877559Y-91361964D01*
D11*
%TO.C,R4*%
X170254724Y-108522500D02*
X169745276Y-108522500D01*
X170254724Y-107477500D02*
X169745276Y-107477500D01*
D12*
%TO.C,CR1*%
X170000000Y-119800600D02*
X169619000Y-119038600D01*
X170000000Y-119800600D02*
X169492000Y-119038600D01*
X172108200Y-112574300D02*
X171463040Y-112574300D01*
X168536960Y-112574300D02*
X167891800Y-112574300D01*
X170000000Y-119800600D02*
X170381000Y-119038600D01*
X170000000Y-119800600D02*
X170508000Y-119038600D01*
X170000000Y-119800600D02*
X170635000Y-119038600D01*
X169365000Y-119800600D02*
X170635000Y-119800600D01*
X167891800Y-112574300D02*
X167891800Y-117425700D01*
X170000000Y-119800600D02*
X170254000Y-119038600D01*
X170000000Y-118784600D02*
X170000000Y-120054600D01*
X170000000Y-119800600D02*
X169365000Y-119038600D01*
X170000000Y-119800600D02*
X170127000Y-119038600D01*
X167891800Y-117425700D02*
X168536960Y-117425700D01*
X171463040Y-117425700D02*
X172108200Y-117425700D01*
X169365000Y-119038600D02*
X170635000Y-119038600D01*
X170000000Y-119800600D02*
X169873000Y-119038600D01*
X170000000Y-119800600D02*
X169746000Y-119038600D01*
X172108200Y-117425700D02*
X172108200Y-112574300D01*
D11*
%TO.C,U1*%
X171263750Y-94876250D02*
X171263750Y-96776250D01*
X173583750Y-96276250D02*
X173583750Y-94876250D01*
%TO.C,R2*%
X173946250Y-87321526D02*
X173946250Y-87830974D01*
X172901250Y-87321526D02*
X172901250Y-87830974D01*
%TO.C,D2*%
X171158750Y-92376250D02*
X171158750Y-90091250D01*
X169688750Y-90091250D02*
X169688750Y-92376250D01*
X171158750Y-90091250D02*
X169688750Y-90091250D01*
D13*
%TO.C,J2*%
X171250000Y-120210000D02*
X172500000Y-120210000D01*
X171250000Y-129790000D02*
X172500000Y-129790000D01*
X176500000Y-120210000D02*
X175220000Y-120210000D01*
X175220000Y-129790000D02*
X176500000Y-129790000D01*
X176500000Y-129790000D02*
X176500000Y-120210000D01*
D11*
%TO.C,D1*%
X171158750Y-88376250D02*
X171158750Y-86091250D01*
X169688750Y-86091250D02*
X169688750Y-88376250D01*
X171158750Y-86091250D02*
X169688750Y-86091250D01*
%TO.C,R1*%
X170254724Y-105522500D02*
X169745276Y-105522500D01*
X170254724Y-104477500D02*
X169745276Y-104477500D01*
%TO.C,R6*%
X173946250Y-91321526D02*
X173946250Y-91830974D01*
X172901250Y-91321526D02*
X172901250Y-91830974D01*
%TO.C,Module1*%
X131430000Y-114900000D02*
X131430000Y-113900000D01*
X127650000Y-92100000D02*
X127650000Y-93100000D01*
X161570000Y-92100000D02*
X161570000Y-93100000D01*
X165350000Y-92100000D02*
X165350000Y-93100000D01*
X166500000Y-130000000D02*
X166500000Y-82000000D01*
X131430000Y-114900000D02*
X127650000Y-114900000D01*
X165350000Y-114900000D02*
X161570000Y-114900000D01*
X131430000Y-92100000D02*
X131430000Y-93100000D01*
X127650000Y-114900000D02*
X127650000Y-113900000D01*
X131430000Y-92100000D02*
X127650000Y-92100000D01*
X126500000Y-82000000D02*
X126500000Y-130000000D01*
X165350000Y-92100000D02*
X161570000Y-92100000D01*
X163000000Y-78500000D02*
X130000000Y-78500000D01*
X130000000Y-133500000D02*
X163000000Y-133500000D01*
X126500000Y-82000000D02*
G75*
G02*
X130000000Y-78500000I3500000J0D01*
G01*
X166500000Y-130000000D02*
G75*
G02*
X163000000Y-133500000I-3500000J0D01*
G01*
X163000000Y-78500000D02*
G75*
G02*
X166500000Y-82000000I0J-3500000D01*
G01*
X130000000Y-133500000D02*
G75*
G02*
X126500000Y-130000000I0J3500000D01*
G01*
%TD*%
M02*
